<svg width="33" height="39" viewBox="0 0 33 39" fill="none" xmlns="http://www.w3.org/2000/svg">
<path d="M19.112 38.52C16.3733 38.52 13.8427 38.0693 11.52 37.168C9.232 36.232 7.23867 34.932 5.54 33.268C3.84133 31.5693 2.524 29.576 1.588 27.288C0.686667 24.9653 0.236 22.4173 0.236 19.644C0.236 16.94 0.721333 14.444 1.692 12.156C2.66267 9.868 3.99733 7.892 5.696 6.228C7.42933 4.52933 9.45733 3.212 11.78 2.276C14.1373 1.34 16.7027 0.871998 19.476 0.871998C21.2093 0.871998 22.908 1.09733 24.572 1.548C26.236 1.99867 27.7787 2.67466 29.2 3.576C30.656 4.44266 31.904 5.48266 32.944 6.696L27.536 12.884C26.808 12.1213 26.028 11.4627 25.196 10.908C24.3987 10.3187 23.5147 9.868 22.544 9.556C21.5733 9.244 20.5333 9.088 19.424 9.088C18.0373 9.088 16.72 9.348 15.472 9.868C14.2587 10.3533 13.184 11.064 12.248 12C11.3467 12.9013 10.636 14.0107 10.116 15.328C9.596 16.6453 9.336 18.1187 9.336 19.748C9.336 21.3427 9.596 22.7987 10.116 24.116C10.636 25.3987 11.364 26.508 12.3 27.444C13.236 28.38 14.3627 29.0907 15.68 29.576C17.032 30.0613 18.5227 30.304 20.152 30.304C21.2613 30.304 22.3187 30.148 23.324 29.836C24.3293 29.524 25.248 29.108 26.08 28.588C26.9467 28.0333 27.7093 27.4093 28.368 26.716L32.632 33.476C31.7653 34.4467 30.604 35.3133 29.148 36.076C27.7267 36.8387 26.132 37.4453 24.364 37.896C22.6307 38.312 20.88 38.52 19.112 38.52Z" fill="white"/>
</svg>
