<svg width="167" height="42" viewBox="0 0 167 42" fill="none" xmlns="http://www.w3.org/2000/svg">
<g clip-path="url(#clip0_2_29)">
<path d="M23 28.5153V9.89286H26.3163V25.5816H34.6071V28.3878H23V28.5153ZM40.3469 28.7704C39.4541 28.7704 38.6888 28.6429 37.9235 28.2602C37.2857 27.8776 36.648 27.4949 36.2653 26.8571C35.8827 26.2194 35.6276 25.4541 35.6276 24.5612C35.6276 23.7959 35.7551 23.1582 36.0102 22.648C36.2653 22.1378 36.648 21.7551 37.1582 21.3724C37.6684 21.1173 38.1786 20.8622 38.8163 20.7347C39.4541 20.6071 40.0918 20.4796 40.7296 20.352C41.4949 20.2245 42.2602 20.2245 42.7704 20.0969C43.2806 19.9694 43.6633 19.9694 43.9184 19.7143C44.1735 19.5867 44.301 19.3316 44.301 19.0765C44.301 18.4388 44.0459 17.9286 43.6633 17.5459C43.2806 17.1633 42.6429 17.0357 41.8776 17.0357C41.1122 17.0357 40.4745 17.1633 39.9643 17.5459C39.4541 17.9286 39.199 18.3112 39.0714 18.8214L36.0102 18.4388C36.2653 17.5459 36.648 16.9082 37.1582 16.2704C37.6684 15.7602 38.4337 15.25 39.199 14.9949C39.9643 14.7398 40.8571 14.6122 41.8776 14.6122C42.5153 14.6122 43.1531 14.7398 43.9184 14.8673C44.5561 14.9949 45.1939 15.25 45.7041 15.6327C46.2143 16.0153 46.7245 16.5255 46.9796 17.0357C47.3622 17.6735 47.4898 18.4388 47.4898 19.3316V28.6429H44.301V26.7296H44.1735C43.9184 27.1122 43.6633 27.4949 43.2806 27.8776C42.898 28.2602 42.5153 28.5153 41.8776 28.6429C41.75 28.6429 41.1122 28.7704 40.3469 28.7704ZM41.2398 26.3469C41.8776 26.3469 42.5153 26.2194 42.898 25.9643C43.4082 25.7092 43.7908 25.3265 44.0459 24.9439C44.301 24.5612 44.4286 24.051 44.4286 23.5408V21.8827C44.301 22.0102 44.1735 22.0102 43.9184 22.1378C43.6633 22.2653 43.4082 22.2653 43.1531 22.2653C42.898 22.2653 42.5153 22.3929 42.2602 22.3929C42.0051 22.3929 41.75 22.5204 41.4949 22.5204C40.9847 22.648 40.602 22.648 40.2194 22.9031C39.8367 23.0306 39.5816 23.2857 39.3265 23.5408C39.0714 23.7959 38.9439 24.1786 38.9439 24.5612C38.9439 25.199 39.199 25.5816 39.5816 25.9643C39.9643 26.2194 40.4745 26.3469 41.2398 26.3469ZM53.2296 20.352V28.5153H49.9133V14.4847H53.102V16.9082H53.2296C53.6122 16.1429 54.1224 15.5051 54.7602 14.9949C55.5255 14.4847 56.2908 14.3571 57.4388 14.3571C58.4592 14.3571 59.2245 14.6122 59.9898 14.9949C60.7551 15.3776 61.2653 16.0153 61.648 16.7806C62.0306 17.5459 62.2857 18.5663 62.2857 19.5867V28.3878H58.8418V20.0969C58.8418 19.2041 58.5867 18.4388 58.2041 17.9286C57.6939 17.4184 57.0561 17.1633 56.1633 17.1633C55.6531 17.1633 55.1429 17.2908 54.6327 17.5459C54.25 17.801 53.8673 18.1837 53.6122 18.5663C53.3571 19.0765 53.2296 19.5867 53.2296 20.352ZM70.5765 34C69.4286 34 68.4082 33.8724 67.5153 33.4898C66.6225 33.2347 65.9847 32.7245 65.4745 32.2143C64.9643 31.7041 64.5816 31.0663 64.4541 30.4286L67.3878 29.6633C67.5153 29.9184 67.7704 30.1735 68.0255 30.4286C68.2806 30.6837 68.6633 30.9388 69.0459 31.0663C69.4286 31.1939 70.0663 31.3214 70.7041 31.3214C71.5969 31.3214 72.3622 31.0663 73 30.6837C73.6378 30.1735 73.8929 29.5357 73.8929 28.5153V25.8367H73.7653C73.6378 26.2194 73.3827 26.4745 73 26.8571C72.6173 27.2398 72.2347 27.4949 71.7245 27.75C71.2143 28.0051 70.5765 28.1327 69.6837 28.1327C68.6633 28.1327 67.6429 27.8776 66.75 27.3673C65.8571 26.8571 65.2194 26.0918 64.7092 25.0714C64.199 24.051 63.9439 22.7755 63.9439 21.2449C63.9439 19.7143 64.199 18.4388 64.7092 17.4184C65.2194 16.398 65.8571 15.5051 66.75 14.9949C67.6429 14.4847 68.5357 14.2296 69.6837 14.2296C70.449 14.2296 71.2143 14.3571 71.7245 14.6122C72.2347 14.8673 72.6173 15.25 73 15.6327C73.2551 16.0153 73.5102 16.398 73.7653 16.6531H73.8929V14.4847H77.0816V28.6429C77.0816 29.7908 76.8265 30.8112 76.1888 31.5765C75.6786 32.3418 74.7857 32.9796 73.8929 33.3622C72.8725 33.7449 71.7245 34 70.5765 34ZM70.5765 25.7092C71.2143 25.7092 71.852 25.5816 72.3622 25.199C72.8724 24.8163 73.2551 24.4337 73.5102 23.7959C73.7653 23.1582 73.8929 22.3929 73.8929 21.5C73.8929 20.6071 73.7653 19.8418 73.5102 19.2041C73.2551 18.4388 72.8724 17.9286 72.3622 17.6735C71.852 17.2908 71.3418 17.1633 70.5765 17.1633C69.8112 17.1633 69.1735 17.2908 68.7908 17.6735C68.2806 18.0561 67.898 18.5663 67.6429 19.2041C67.3878 19.8418 67.2602 20.6071 67.2602 21.5C67.2602 22.3929 67.3878 23.1582 67.6429 23.7959C67.898 24.4337 68.2806 24.9439 68.7908 25.3265C69.1735 25.4541 69.8112 25.7092 70.5765 25.7092ZM95.449 16.1429H92.0051C91.8775 15.6327 91.75 15.1224 91.4949 14.6122C91.2398 14.2296 90.8571 13.8469 90.4745 13.4643C90.0918 13.2092 89.7092 12.9541 89.199 12.8265C88.6888 12.699 88.1786 12.5714 87.6684 12.5714C86.648 12.5714 85.7551 12.8265 84.9898 13.3367C84.2245 13.8469 83.5867 14.6122 83.2041 15.5051C82.6939 16.6531 82.4388 17.801 82.4388 19.2041C82.4388 20.6071 82.6939 21.8827 83.0765 22.7755C83.5867 23.7959 84.0969 24.4337 84.8622 24.9439C85.6276 25.4541 86.5204 25.7092 87.5408 25.7092C88.051 25.7092 88.5612 25.5816 89.0714 25.4541C89.5816 25.3265 89.9643 25.0714 90.3469 24.8163C90.7296 24.5612 91.1122 24.1786 91.3673 23.7959C91.6224 23.4133 91.8776 22.9031 91.8776 22.3929H95.3214C95.1939 23.2857 94.9388 24.051 94.5561 24.8163C94.1735 25.5816 93.5357 26.2194 92.898 26.8571C92.2602 27.4949 91.3673 27.8776 90.4745 28.2602C89.5816 28.6429 88.5612 28.7704 87.4133 28.7704C85.7551 28.7704 84.352 28.3878 83.0765 27.6224C81.801 26.8571 80.7806 25.8367 80.0153 24.3061C79.25 22.9031 78.8673 21.1173 78.8673 19.2041C78.8673 17.1633 79.25 15.5051 80.0153 14.102C80.7806 12.699 81.801 11.551 83.0765 10.7857C84.352 10.0204 85.7551 9.63776 87.4133 9.63776C88.4337 9.63776 89.4541 9.76531 90.3469 10.0204C91.2398 10.2755 92.0051 10.7857 92.7704 11.2959C93.4082 11.8061 94.0459 12.5714 94.4286 13.3367C94.9388 14.2296 95.3214 15.1224 95.449 16.1429ZM100.679 20.352V28.5153H97.3622V9.89286H100.551V16.9082H100.679C101.061 16.1429 101.571 15.5051 102.209 14.9949C102.847 14.4847 103.74 14.3571 104.888 14.3571C105.908 14.3571 106.673 14.6122 107.439 14.9949C108.204 15.3776 108.714 16.0153 109.097 16.7806C109.48 17.5459 109.735 18.5663 109.735 19.5867V28.3878H106.418V20.0969C106.418 19.2041 106.163 18.4388 105.653 17.9286C105.143 17.4184 104.505 17.1633 103.612 17.1633C102.974 17.1633 102.464 17.2908 102.082 17.5459C101.571 17.801 101.316 18.1837 101.061 18.5663C100.806 19.0765 100.679 19.5867 100.679 20.352ZM115.985 28.7704C115.092 28.7704 114.327 28.6429 113.561 28.2602C112.923 27.8776 112.286 27.4949 111.903 26.8571C111.52 26.2194 111.265 25.4541 111.265 24.5612C111.265 23.7959 111.393 23.1582 111.648 22.648C111.903 22.1378 112.286 21.7551 112.796 21.3724C113.306 21.1173 113.816 20.8622 114.454 20.7347C115.092 20.6071 115.73 20.4796 116.367 20.352C117.133 20.2245 117.898 20.2245 118.408 20.0969C118.918 19.9694 119.301 19.9694 119.556 19.7143C119.939 19.5867 120.066 19.3316 120.066 19.0765C120.066 18.4388 119.811 17.9286 119.429 17.5459C119.046 17.1633 118.408 17.0357 117.643 17.0357C116.878 17.0357 116.24 17.1633 115.73 17.5459C115.219 17.9286 114.964 18.3112 114.837 18.8214L111.776 18.4388C112.031 17.4184 112.413 16.6531 112.923 16.1429C113.434 15.6327 114.199 15.1224 114.964 14.8673C115.73 14.6122 116.622 14.4847 117.643 14.4847C118.281 14.4847 118.918 14.6122 119.684 14.7398C120.321 14.8673 120.959 15.1224 121.469 15.5051C121.98 15.8878 122.49 16.398 122.745 16.9082C123.128 17.5459 123.255 18.3112 123.255 19.2041V28.5153H120.066V26.602C119.811 26.9847 119.556 27.3673 119.173 27.75C118.791 28.1327 118.408 28.3878 117.77 28.5153C117.388 28.6429 116.75 28.7704 115.985 28.7704ZM116.878 26.3469C117.515 26.3469 118.153 26.2194 118.536 25.9643C119.046 25.7092 119.429 25.3265 119.684 24.9439C119.939 24.5612 120.066 24.051 120.066 23.5408V21.8827C119.939 22.0102 119.811 22.0102 119.556 22.1378C119.301 22.2653 119.046 22.2653 118.791 22.2653C118.536 22.2653 118.153 22.3929 117.898 22.3929C117.643 22.3929 117.388 22.5204 117.133 22.5204C116.622 22.648 116.24 22.648 115.857 22.9031C115.474 23.0306 115.219 23.2857 114.964 23.5408C114.709 23.7959 114.582 24.1786 114.582 24.5612C114.582 25.199 114.837 25.5816 115.219 25.9643C115.602 26.2194 116.112 26.3469 116.878 26.3469ZM125.551 28.5153V14.4847H128.867V28.3878H125.551V28.5153ZM127.209 12.5714C126.699 12.5714 126.189 12.4439 125.806 12.0612C125.423 11.6786 125.296 11.2959 125.296 10.7857C125.296 10.2755 125.423 9.89286 125.806 9.5102C126.316 9.12755 126.699 9 127.209 9C127.719 9 128.23 9.12755 128.612 9.5102C128.995 9.89286 129.122 10.2755 129.122 10.7857C129.122 11.2959 128.995 11.6786 128.612 12.0612C128.23 12.4439 127.719 12.5714 127.209 12.5714ZM134.48 20.352V28.5153H131.163V14.4847H134.352V16.9082H134.48C134.862 16.1429 135.372 15.5051 136.01 14.9949C136.776 14.4847 137.541 14.3571 138.689 14.3571C139.709 14.3571 140.474 14.6122 141.24 14.9949C142.005 15.3776 142.515 16.0153 142.898 16.7806C143.281 17.5459 143.536 18.5663 143.536 19.5867V28.3878H140.219V20.0969C140.219 19.2041 139.964 18.4388 139.454 17.9286C138.944 17.4184 138.306 17.1633 137.413 17.1633C136.903 17.1633 136.393 17.2908 135.883 17.5459C135.5 17.801 135.117 18.1837 134.862 18.5663C134.607 19.0765 134.48 19.5867 134.48 20.352Z" fill="white"/>
</g>
<defs>
<clipPath id="clip0_2_29">
<rect width="120.536" height="25" fill="white" transform="translate(23 9)"/>
</clipPath>
</defs>
</svg>
