<svg width="167" height="42" viewBox="0 0 167 42" fill="none" xmlns="http://www.w3.org/2000/svg">
<g clip-path="url(#clip0_2_19)">
<path d="M93.0419 17.7277V17.7361C92.9912 17.7361 92.9402 17.7445 92.8895 17.7445C92.8388 17.7445 92.7878 17.7361 92.7371 17.7361C89.7148 17.7361 87.8438 19.6241 87.8438 22.6548V24.1448C87.8438 27.0654 89.7403 28.8773 92.7794 28.8773C92.8416 28.8789 92.9038 28.8761 92.9657 28.8689C93.008 28.8689 93.0419 28.8773 93.0842 28.8773C95.1243 28.8773 96.5468 28.1324 97.4524 26.5914L95.6493 25.5499C95.0481 26.4388 94.2439 27.1077 93.0926 27.1077C91.5519 27.1077 90.6291 26.1595 90.6291 24.5594V24.1361H97.7743V22.3752C97.7743 19.5476 95.9205 17.7277 93.0419 17.7277ZM92.8895 19.4633C94.2949 19.5311 95.1414 20.4623 95.1414 21.9946V22.4178H90.6207V22.1722C90.6207 20.4791 91.425 19.5311 92.8895 19.4633ZM81.7908 17.7361C80.4448 17.7361 79.2851 18.2949 78.6755 19.2261L78.5232 19.463V17.9898H75.9664V32.289H78.65V27.2943L78.8024 27.5229C79.3781 28.3778 80.5042 28.8857 81.8163 28.8857H81.8841H81.9432C84.1529 28.8857 86.3793 27.4464 86.3793 24.221V22.4094C86.3793 20.0897 85.0078 17.7448 81.9261 17.7448L81.9093 17.7364H81.8502L81.7908 17.7361ZM81.1645 19.751C82.7223 19.7765 83.6873 20.8345 83.6873 22.5279V24.0854C83.6873 25.7785 82.7136 26.8284 81.139 26.8623C79.6745 26.8368 78.65 25.7194 78.65 24.1277V22.5276C78.65 20.9191 79.6829 19.7849 81.1645 19.751ZM115.942 14.2059L110.778 28.6319H113.682L114.672 25.5418H120.311V25.5757L121.301 28.6403H124.205L119.032 14.2143H118.728L118.719 14.2059H115.942ZM117.483 16.6864L119.642 23.5017H115.307L117.483 16.6864ZM134.593 16.2377V14.2059H125.737V16.2377H128.844V26.583H125.737V28.6148H134.593V26.583H131.486V16.2377H134.593ZM105.453 17.7364H105.377H105.334C103.836 17.7364 102.769 18.2442 102.244 19.218L102.084 19.5143V17.9904H99.5268V28.6235H102.21V22.2909C102.21 20.8009 103.015 19.946 104.403 19.9205C105.732 19.946 106.494 20.7841 106.494 22.2319V28.6235H109.178V21.7744C109.178 19.2432 107.789 17.7361 105.461 17.7361L105.453 17.7364ZM67.3393 13.9095C63.3856 13.9095 60.9222 16.3733 60.9222 20.3438V22.4856C60.9222 26.4562 63.3772 28.9196 67.3393 28.9196H67.3987H67.4578C71.4115 28.9196 73.875 26.4562 73.875 22.4856V20.3438C73.875 16.3733 71.4115 13.9095 67.4578 13.9095H67.3987H67.3393ZM67.3987 16.0601C69.7524 16.0856 71.1068 17.5924 71.1068 20.1998V22.638C71.1068 25.2454 69.7524 26.7525 67.3987 26.7777C65.0451 26.7522 63.6904 25.2454 63.6904 22.638V20.1998C63.6904 17.5924 65.0451 16.0853 67.3987 16.0601ZM44.0243 8.00053C41.2897 8.00053 38.8602 9.76141 38.0133 12.3604C37.1443 12.5396 36.3233 12.9018 35.6052 13.4229C34.887 13.944 34.288 14.6121 33.8481 15.3827C32.4766 17.7532 32.7898 20.7332 34.6272 22.7649C34.0599 24.4667 34.2546 26.329 35.1605 27.87C36.5236 30.2488 39.2664 31.4679 41.9503 30.9007C42.5379 31.5639 43.2602 32.0942 44.069 32.4562C44.8777 32.8182 45.7544 33.0037 46.6405 33.0002C49.3751 33.0002 51.8046 31.2393 52.6514 28.6403C54.4123 28.2761 55.9278 27.1755 56.8083 25.618C58.1882 23.2476 57.875 20.2676 56.0379 18.2358V18.2274C56.3181 17.3862 56.4155 16.4949 56.3235 15.6131C56.2315 14.7313 55.9523 13.8792 55.5045 13.114C54.1411 10.7435 51.3981 9.52412 48.7229 10.0914C48.1326 9.4299 47.4084 8.90142 46.5983 8.54096C45.7883 8.1805 44.9109 7.99629 44.0243 8.00053ZM44.0243 9.62612L44.0159 9.63452C45.1166 9.63452 46.1749 10.0155 47.0214 10.7183C46.9875 10.7351 46.9197 10.7774 46.869 10.8029L41.8912 13.6728C41.6371 13.8168 41.4847 14.0877 41.4847 14.3841V21.1228L39.3429 19.8869V14.3163C39.3424 13.0737 39.8352 11.8818 40.713 11.0023C41.5907 10.1228 42.7818 9.62803 44.0243 9.62612ZM50.0209 11.588C50.8458 11.5864 51.6566 11.8026 52.3711 12.2148C53.0857 12.627 53.6788 13.2205 54.0904 13.9353C54.6322 14.8836 54.8353 15.9926 54.649 17.0677C54.6151 17.0422 54.5476 17.0086 54.505 16.9831L49.5272 14.1045C49.4019 14.0337 49.2605 13.9965 49.1166 13.9965C48.9728 13.9965 48.8313 14.0337 48.7061 14.1045L42.873 17.4739V15.0017L47.6901 12.2164C48.3983 11.8058 49.2022 11.589 50.0209 11.5877V11.588ZM37.7089 14.1468V20.0645C37.7089 20.3609 37.8613 20.6234 38.1153 20.7758L43.9397 24.1367L41.7892 25.381L36.9805 22.6041C35.9059 21.9813 35.1223 20.9576 34.8017 19.7576C34.4811 18.5577 34.6498 17.2795 35.2706 16.2038C35.8183 15.2544 36.6809 14.5269 37.7089 14.1468ZM48.8669 15.6113L53.684 18.3882C55.9275 19.6835 56.6892 22.545 55.3938 24.7886L55.4022 24.797C54.8521 25.7452 53.9884 26.4733 52.964 26.8458V20.9278C52.964 20.6315 52.8116 20.3606 52.5575 20.2169L46.7247 16.8472L48.8669 15.6113ZM45.328 17.6518L47.7834 19.074V21.91L45.328 23.3322L42.873 21.91V19.074L45.328 17.6518ZM49.1885 19.8869L51.3303 21.1228V26.685C51.3303 29.2757 49.2308 31.3752 46.6489 31.3752V31.3668C45.5566 31.3668 44.4899 30.9858 43.6518 30.2833C43.6857 30.2665 43.7619 30.2239 43.8041 30.1984L48.782 27.3285C49.0361 27.1845 49.1969 26.9136 49.1882 26.6172L49.1885 19.8869ZM47.7915 23.5272V25.999L42.9744 28.7759C40.7309 30.0628 37.8694 29.3009 36.574 27.0657H36.5824C36.0323 26.1259 35.8373 25.0085 36.0236 23.9333C36.0575 23.9588 36.1253 23.9924 36.1676 24.0179L41.1454 26.8965C41.2707 26.9674 41.4121 27.0046 41.556 27.0046C41.6998 27.0046 41.8412 26.9674 41.9665 26.8965L47.7915 23.5272Z" fill="white"/>
</g>
<defs>
<clipPath id="clip0_2_19">
<rect width="101.593" height="25" fill="white" transform="translate(33 8)"/>
</clipPath>
</defs>
</svg>
