<svg width="167" height="42" viewBox="0 0 167 42" fill="none" xmlns="http://www.w3.org/2000/svg">
<g clip-path="url(#clip0_1_9)">
<path d="M49.7444 13.5968H56.1121C60.7202 13.5968 61.8874 16.3756 61.8874 18.6405C61.8874 20.9053 60.694 23.6841 56.1121 23.6841H52.1834V31.6285H49.7444V13.5968ZM52.1834 15.7397V21.5412H55.3978C57.3316 21.5412 59.2654 21.0882 59.2654 18.6405C59.2654 16.1927 57.3316 15.7397 55.3978 15.7397H52.1834ZM65.0756 13.5097C65.9961 13.5103 66.7449 14.251 66.7556 15.1713C66.7664 16.0917 66.035 16.8496 65.1148 16.8717C64.1947 16.8937 63.4278 16.1717 63.3944 15.2519C63.3803 14.7962 63.5509 14.3542 63.8675 14.0261C64.1841 13.6981 64.6198 13.5119 65.0756 13.5097ZM63.9519 19.5551H66.2168V31.6285H63.9519V19.5551ZM68.8388 19.5551H71.1297V21.4193H71.182C71.9807 19.9945 73.5238 19.1519 75.1542 19.2502C77.4974 19.2502 79.5097 20.6527 79.5097 23.8583V31.6285H77.2448V24.5029C77.2448 22.2294 75.9469 21.3931 74.4922 21.3931C72.5845 21.3931 71.1297 22.6127 71.1297 25.4176V31.6285H68.8388V19.5551ZM83.7083 26.4368C83.7083 28.5448 85.6683 29.9211 87.7851 29.9211C89.1129 29.8825 90.3426 29.2126 91.0952 28.118L92.8374 29.442C91.5724 31.1107 89.5625 32.0439 87.4715 31.9334C83.7254 31.9334 81.3586 29.3003 81.2635 25.811L81.2606 25.5918C81.193 23.9129 81.8213 22.2806 82.997 21.0802C84.1726 19.8798 85.7915 19.2177 87.4715 19.2502C91.7224 19.2502 93.3514 22.5081 93.3514 25.6179V26.4368H83.7083ZM90.9558 24.5987C90.9036 22.5865 89.7799 21.1144 87.4715 21.1144C85.4973 21.1009 83.8549 22.6288 83.7258 24.5987H90.9558ZM103.752 22.7695C103.006 21.8878 101.901 21.3913 100.747 21.4193C98.2556 21.4193 96.9751 23.4315 96.9751 25.6963C96.9124 26.7676 97.2965 27.817 98.0361 28.5945C98.7757 29.3721 99.8045 29.8083 100.878 29.7992C102.012 29.8372 103.097 29.3365 103.804 28.449L105.433 30.0605C104.248 31.3152 102.576 31.9924 100.851 31.9159C99.1564 32.0013 97.5041 31.367 96.3015 30.1694C95.0989 28.9717 94.4578 27.3221 94.536 25.6266C94.4594 23.9247 95.0984 22.2683 96.2981 21.0586C97.4978 19.8489 99.1489 19.1964 100.851 19.2589C102.596 19.2147 104.278 19.9072 105.486 21.1666L103.752 22.7695ZM112.211 19.2502C115.699 19.3077 118.485 22.1719 118.447 25.6603C118.409 29.1488 115.56 31.9513 112.072 31.9327C108.583 31.9136 105.765 29.0804 105.764 25.5918C105.764 23.8916 106.447 22.2626 107.659 21.0703C108.807 19.9407 110.339 19.2927 111.943 19.2515L112.211 19.2502ZM112.211 29.7992C114.65 29.7992 116.183 28.057 116.183 25.5918C116.183 23.1266 114.65 21.3931 112.211 21.3931C109.771 21.3931 108.23 23.1353 108.23 25.5918C108.23 27.98 109.679 29.7014 112.009 29.7952L112.211 29.7992ZM120.486 19.5551H122.777V21.4193C123.579 19.9931 125.125 19.1506 126.758 19.2502C129.101 19.2502 131.113 20.6527 131.113 23.8583V31.6285H128.822V24.5029C128.822 22.2294 127.524 21.3931 126.078 21.3931C124.162 21.3931 122.716 22.6127 122.716 25.4176V31.6285H120.486V19.5551ZM135.382 26.4368C135.382 28.5448 137.342 29.9211 139.458 29.9211C140.785 29.8784 142.013 29.2094 142.769 28.118L144.511 29.442C143.245 31.0968 141.243 32.0195 139.162 31.9072C135.425 31.9072 133.05 29.2741 132.954 25.7848L132.951 25.5657C132.883 23.8821 133.515 22.2456 134.697 21.0443C135.878 19.8431 137.504 19.1842 139.188 19.2241C143.448 19.2241 145.077 22.482 145.077 25.5918V26.4106L135.382 26.4368ZM142.612 24.5987C142.559 22.5865 141.444 21.1144 139.127 21.1144C137.151 21.0965 135.507 22.6267 135.382 24.5987H142.612Z" fill="white"/>
<path d="M31.3817 29.9734C32.1659 29.9734 32.8016 30.6091 32.8016 31.3933C32.8016 32.1775 32.1659 32.8132 31.3817 32.8132C30.5975 32.8132 29.9618 32.1775 29.9618 31.3933C29.9618 30.6091 30.5975 29.9734 31.3817 29.9734ZM39.2592 27.3827L40.6624 27.7985L39.5486 31.5576C39.4512 31.8861 39.1391 32.103 38.7973 32.0797L38.4532 32.0561L38.4448 32.0631L34.8703 31.8122L34.9698 30.3522L37.3713 30.5152L35.7991 28.2472L37.0017 27.4133L38.576 29.6841L39.2592 27.3827ZM23.9874 24.7841L25.4472 24.8875L25.2762 27.2886L27.5401 25.7144L28.3758 26.9157L26.109 28.4916L28.4227 29.1734L28.0092 30.5772L24.2323 29.4645C23.9026 29.3673 23.6849 29.0538 23.7092 28.7109L23.9874 24.7841ZM33.4127 22.7394L36.0474 25.9202L34.86 26.9037L33.292 25.0107L32.7836 27.9212L31.2648 27.6557L31.7737 24.7407L29.6628 25.9853L28.8802 24.6568L32.4277 22.5669C32.7539 22.3748 33.1713 22.4478 33.4127 22.7394ZM40.7839 20.6053L42.1 19.8892L44.0173 23.4132C44.1853 23.7219 44.1161 24.1058 43.8509 24.3365L43.5796 24.5708L40.8117 26.9797L39.8285 25.8492L41.6893 24.2302L38.9176 23.7309L39.1835 22.2564L41.9533 22.7555L40.7839 20.6053ZM25.2629 16.921L26.2543 18.0444L24.419 19.6631L27.1961 20.1479L26.9387 21.6239L24.1586 21.1387L25.3527 23.2975L24.0417 24.0228L22.0936 20.5014C21.9236 20.1939 21.99 19.8096 22.2535 19.5771L25.2629 16.921ZM34.6499 15.7621L37.2756 18.9344L36.0878 19.9175L34.5202 18.0237L34.0119 20.9351L32.4931 20.6696L33.0002 17.7658L30.8974 18.9985L30.1177 17.6683L33.3477 15.7745L33.3509 15.7622L33.3652 15.7641L33.6662 15.5886C33.9923 15.3974 34.4088 15.4709 34.6499 15.7621ZM38.0334 14.202L38.6077 12.8181L42.3223 14.3596C42.6466 14.4942 42.8339 14.8358 42.773 15.1815L42.7111 15.5254L42.0768 19.1336L40.6012 18.8737L41.0264 16.4583L38.562 17.8204L37.8378 16.5087L40.3069 15.1456L38.0334 14.202ZM30.9571 11.4749L31.021 12.9719L28.5672 13.0767L30.4179 15.1917L29.2903 16.1783L27.4365 14.0602L27.0046 16.4784L25.5297 16.2146L26.2365 12.2628C26.2983 11.9174 26.5915 11.6612 26.942 11.6463L27.2893 11.6307L27.2971 11.6251L30.9571 11.4749ZM35.9765 8.28257L38.5904 11.4749L37.3974 12.4517L35.846 10.5567L35.3228 13.4642L33.8053 13.1911L34.3295 10.277L32.2113 11.5154L31.4335 10.1842L34.9911 8.10535C35.3185 7.91406 35.7363 7.98921 35.9765 8.28257Z" fill="white"/>
</g>
<defs>
<clipPath id="clip0_1_9">
<rect width="123.077" height="25" fill="white" transform="translate(22 8)"/>
</clipPath>
</defs>
</svg>
