<svg width="167" height="42" viewBox="0 0 167 42" fill="none" xmlns="http://www.w3.org/2000/svg">
<g clip-path="url(#clip0_2_58)">
<path d="M88.1622 15.6581C88.1622 16.355 87.5897 16.9769 86.8432 16.9769C86.2707 16.9769 85.7731 17.1263 85.3501 17.4498C84.8774 17.7487 84.504 18.1715 84.2056 18.6443C83.6082 19.4407 83.31 20.3861 83.1854 20.7342V25.4622C83.1854 26.1839 82.5634 26.7812 81.8169 26.7812C81.0952 26.7812 80.4981 26.1839 80.4981 25.4622V15.6581C80.4981 14.9364 81.0952 14.3641 81.8169 14.3641C82.5634 14.3641 83.1854 14.9366 83.1854 15.6581V15.8324C83.3346 15.6581 83.5337 15.4592 83.708 15.3346C84.5292 14.7874 85.5991 14.3393 86.8432 14.3641C87.5897 14.3641 88.1622 14.9366 88.1622 15.6581Z" fill="white"/>
<path d="M87.4324 20.5606C87.4575 17.1764 90.0951 14.3397 93.5039 14.3397C96.7388 14.3397 99.3017 16.7534 99.501 20.1125V20.2369C99.501 20.2867 99.501 20.4109 99.4761 20.4608C99.4012 21.0581 98.8788 21.4563 98.182 21.4563H90.2691C90.3935 22.0288 90.6672 22.6756 91.1152 23.0986C91.6378 23.6959 92.6331 24.1434 93.5039 24.2181C94.3996 24.2926 95.4697 24.0689 96.0918 23.5962C96.6142 23.0485 97.6345 23.1234 97.958 23.5213C98.2815 23.87 98.5303 24.6165 97.958 25.1387C96.7386 26.2582 95.2706 26.781 93.5037 26.781C90.0951 26.7566 87.4575 23.9447 87.4324 20.5606ZM90.1448 19.3413H97.1867C96.9379 18.346 95.6688 16.8779 93.5039 16.7037C91.389 16.803 90.3439 18.3211 90.1448 19.3413Z" fill="white"/>
<path d="M112.178 25.4379C112.178 26.1596 111.58 26.7818 110.834 26.7818C110.162 26.7818 109.64 26.309 109.515 25.7117C108.57 26.3585 107.375 26.7818 106.131 26.7818C102.772 26.7818 100.084 23.9451 100.084 20.5858C100.084 17.1766 102.772 14.3399 106.131 14.3399C107.35 14.3399 108.545 14.7379 109.465 15.3849V10.7069C109.465 9.98524 110.062 9.3631 110.834 9.3631C111.58 9.3631 112.177 9.98524 112.177 10.7069V20.5607V20.5858L112.178 25.4379ZM106.131 17.0522C105.235 17.0522 104.414 17.4254 103.792 18.0723C103.17 18.6945 102.797 19.5901 102.797 20.5856C102.797 21.531 103.17 22.4268 103.792 23.0489C104.414 23.6961 105.235 24.0693 106.131 24.0693C107.052 24.0693 107.848 23.6961 108.47 23.0489C109.092 22.427 109.465 21.531 109.465 20.5856C109.465 19.5901 109.092 18.6945 108.47 18.0723C107.848 17.4254 107.052 17.0522 106.131 17.0522Z" fill="white"/>
<path d="M116.913 11.2293C116.913 11.9759 116.34 12.5978 115.569 12.5978C114.822 12.5978 114.225 11.9759 114.225 11.2293V10.7067C114.225 9.9602 114.822 9.3629 115.569 9.3629C116.34 9.3629 116.913 9.9602 116.913 10.7067V11.2293ZM116.913 15.7332V25.4377C116.913 26.1843 116.34 26.7816 115.569 26.7816C114.822 26.7816 114.225 26.1843 114.225 25.4377V15.7332C114.225 14.937 114.822 14.3645 115.569 14.3645C116.341 14.3645 116.913 14.937 116.913 15.7332Z" fill="white"/>
<path d="M118.623 23.2217C119.07 22.6247 119.942 22.55 120.489 23.0227C121.136 23.5704 122.256 24.1423 123.226 24.1176C123.898 24.1176 124.52 23.8939 124.918 23.6449C125.266 23.3462 125.366 23.0976 125.366 22.8984C125.366 22.774 125.341 22.7243 125.291 22.6494C125.266 22.5749 125.167 22.4753 124.968 22.3511C124.619 22.1021 123.873 21.8283 122.977 21.6543H122.952C122.181 21.505 121.434 21.3059 120.787 21.0071C120.115 20.6838 119.518 20.2359 119.07 19.5641C118.797 19.1162 118.647 18.5688 118.647 17.9965C118.647 16.8518 119.294 15.8813 120.115 15.2591C120.986 14.662 122.032 14.3385 123.176 14.3385C124.893 14.3385 126.112 15.1598 126.909 15.707C127.506 16.1052 127.68 16.9265 127.307 17.5482C126.909 18.1455 126.088 18.3198 125.466 17.8967C124.669 17.3743 123.973 16.976 123.176 16.976C122.554 16.976 122.007 17.1751 121.683 17.4238C121.36 17.648 121.285 17.8719 121.285 17.9963C121.285 18.0957 121.285 18.1207 121.335 18.1952C121.36 18.2449 121.434 18.3444 121.609 18.444C121.932 18.6679 122.579 18.8919 123.425 19.0413L123.45 19.0663H123.475C124.296 19.2154 125.068 19.4395 125.789 19.7878C126.461 20.0865 127.133 20.5592 127.556 21.2559C127.855 21.7534 128.029 22.3259 128.029 22.8982C128.029 24.1174 127.357 25.1378 126.461 25.7846C125.565 26.4065 124.445 26.7801 123.226 26.7801C121.285 26.7552 119.792 25.8595 118.797 25.0632C118.249 24.6154 118.175 23.7691 118.623 23.2217Z" fill="white"/>
<path d="M71.4349 28.6114C69.6869 29.5225 60.6314 33.2458 58.7035 34.2507C56.7757 35.2561 55.7047 35.2462 54.1817 34.5182C52.6588 33.7901 43.0222 29.8976 41.2863 29.0679C40.4186 28.6531 39.9625 28.3033 39.9625 27.9726V24.6617C39.9625 24.6617 52.508 21.9304 54.5335 21.2039C56.5588 20.4772 57.2615 20.451 58.985 21.0824C60.7088 21.7138 71.0148 23.5733 72.7183 24.1972C72.7183 24.1972 72.7175 27.1543 72.7175 27.4612C72.7177 27.7886 72.3247 28.1477 71.4349 28.6114Z" fill="#A41E11"/>
<path d="M71.4349 25.2994C69.6869 26.2102 60.6314 29.9338 58.7035 30.9388C56.7756 31.9441 55.7046 31.9343 54.1817 31.2062C52.6586 30.4786 43.0222 26.5853 41.2863 25.7559C39.5504 24.9262 39.514 24.3551 41.2193 23.6875C42.9243 23.0195 52.508 19.2595 54.5337 18.5328C56.559 17.8065 57.2616 17.7799 58.9852 18.4115C60.709 19.0429 69.7104 22.6258 71.4137 23.2496C73.1175 23.8741 73.1829 24.3882 71.4349 25.2994Z" fill="#D82C20"/>
<path d="M71.4349 23.2121C69.6869 24.1233 60.6314 27.8465 58.7035 28.8519C56.7757 29.8568 55.7047 29.847 54.1817 29.1189C52.6586 28.3913 43.0222 24.4984 41.2863 23.6686C40.4186 23.2539 39.9625 22.9044 39.9625 22.5738V19.2624C39.9625 19.2624 52.508 16.5314 54.5335 15.8047C56.5588 15.0781 57.2615 15.0518 58.985 15.6832C60.7088 16.3145 71.0148 18.1737 72.7183 18.7977C72.7183 18.7977 72.7175 21.7548 72.7175 22.0621C72.7177 22.3893 72.3247 22.7484 71.4349 23.2121Z" fill="#A41E11"/>
<path d="M71.4349 19.9001C69.6869 20.8113 60.6314 24.5346 58.7035 25.5399C56.7756 26.5448 55.7046 26.535 54.1817 25.807C52.6586 25.0793 43.0222 21.1862 41.2863 20.3567C39.5504 19.5271 39.514 18.956 41.2193 18.2881C42.9243 17.6205 52.508 13.8602 54.5337 13.1337C56.559 12.4072 57.2616 12.3808 58.9852 13.0122C60.709 13.6436 69.7104 17.2263 71.4137 17.8504C73.1175 18.4746 73.1829 18.989 71.4349 19.9001Z" fill="#D82C20"/>
<path d="M71.4349 17.6126C69.6869 18.5237 60.6314 22.2472 58.7035 23.2525C56.7757 24.2575 55.7047 24.2476 54.1817 23.5196C52.6586 22.7919 43.0222 18.8988 41.2863 18.0693C40.4186 17.6545 39.9625 17.3048 39.9625 16.9744V13.663C39.9625 13.663 52.508 10.932 54.5335 10.2055C56.5588 9.47881 57.2615 9.45262 58.985 10.084C60.7088 10.7154 71.0148 12.5745 72.7183 13.1986C72.7183 13.1986 72.7175 16.1557 72.7175 16.4628C72.7177 16.7898 72.3247 17.1489 71.4349 17.6126Z" fill="#A41E11"/>
<path d="M71.4349 14.3006C69.6869 15.2118 60.6314 18.9352 58.7035 19.9404C56.7756 20.9453 55.7046 20.9355 54.1817 20.2076C52.6588 19.4798 43.0222 15.5869 41.2863 14.7573C39.5504 13.9278 39.514 13.3565 41.2193 12.6887C42.9243 12.0209 52.508 8.26109 54.5337 7.53439C56.559 6.80768 57.2616 6.7815 58.9852 7.41308C60.709 8.04447 69.7104 11.6272 71.4137 12.2512C73.1175 12.8751 73.1829 13.3896 71.4349 14.3006Z" fill="#D82C20"/>
<path d="M60.6325 11.1119L57.7942 11.4065L57.1588 12.9354L56.1325 11.2293L52.8552 10.9347L55.3007 10.0528L54.567 8.69916L56.8565 9.59454L59.015 8.88786L58.4316 10.2877L60.6325 11.1119Z" fill="white"/>
<path d="M56.9894 18.5291L51.6922 16.3321L59.2827 15.1671L56.9894 18.5291Z" fill="white"/>
<path d="M49.6452 15.1068C51.8858 15.1068 53.7022 14.4027 53.7022 13.5342C53.7022 12.6657 51.8858 11.9616 49.6452 11.9616C47.4047 11.9616 45.5883 12.6657 45.5883 13.5342C45.5883 14.4027 47.4047 15.1068 49.6452 15.1068Z" fill="white"/>
<path d="M63.9869 11.5297L68.4792 13.3051L63.9907 15.0785L63.9869 11.5297Z" fill="#7A0C00"/>
<path d="M59.017 13.4957L63.9868 11.5297L63.9906 15.0785L63.5035 15.2691L59.017 13.4957Z" fill="#AD2115"/>
</g>
<defs>
<clipPath id="clip0_2_58">
<rect width="89.9923" height="30" fill="white" transform="translate(39 6)"/>
</clipPath>
</defs>
</svg>
