<svg width="167" height="42" viewBox="0 0 167 42" fill="none" xmlns="http://www.w3.org/2000/svg">
<path d="M83.8954 15.0088C79.7599 15.0088 76.7732 17.7128 76.7732 21.7599C76.7732 25.8071 80.1311 28.511 84.2666 28.511C86.7761 28.511 88.9676 27.5214 90.3461 25.8601L87.4831 24.1988C86.7231 25.0295 85.5744 25.5066 84.2842 25.5066C82.4816 25.5066 80.9617 24.57 80.3962 23.0677H90.9116C91 22.6436 91.0353 22.2194 91.0353 21.7599C91.0177 17.6951 88.0486 15.0088 83.8954 15.0088ZM80.3431 20.4345C80.8203 18.9323 82.0928 17.9956 83.8954 17.9956C85.6981 17.9956 86.9705 18.9323 87.4477 20.4345H80.3431ZM124.278 15.0088C120.143 15.0088 117.156 17.7128 117.156 21.7599C117.156 25.8071 120.514 28.511 124.649 28.511C127.159 28.511 129.35 27.5214 130.729 25.8601L127.866 24.1988C127.106 25.0295 125.957 25.5066 124.667 25.5066C122.864 25.5066 121.345 24.57 120.779 23.0677H131.295C131.383 22.6436 131.418 22.2194 131.418 21.7599C131.418 17.6951 128.431 15.0088 124.278 15.0088ZM120.744 20.4345C121.221 18.9323 122.493 17.9956 124.296 17.9956C126.099 17.9956 127.371 18.9323 127.848 20.4345H120.744ZM106.11 21.7599C106.11 24.0044 107.577 25.5066 109.857 25.5066C111.395 25.5066 112.561 24.7997 113.162 23.6686L116.043 25.3299C114.859 27.3093 112.614 28.511 109.857 28.511C105.704 28.511 102.735 25.8071 102.735 21.7599C102.735 17.7128 105.722 15.0088 109.857 15.0088C112.614 15.0088 114.841 16.2106 116.043 18.19L113.162 19.8512C112.561 18.7025 111.412 18.0133 109.857 18.0133C107.577 17.9956 106.11 19.4978 106.11 21.7599ZM137.038 10.8733V28.1222H133.663V10.8733H137.038ZM44.8557 9L58.7113 33H31L44.8557 9ZM79.5125 10.8733L69.1208 28.8822L58.729 10.8733H62.6348L69.1384 22.1311L75.6421 10.8733H79.5125ZM101.604 15.38V19.0206C101.233 18.9146 100.826 18.8439 100.402 18.8439C98.2283 18.8439 96.6554 20.3461 96.6554 22.5906V28.1399H93.2798V15.38H96.6554V18.8262C96.6554 16.9175 98.8645 15.38 101.604 15.38Z" fill="white"/>
</svg>
